<svg width="362" height="346" viewBox="0 0 362 346" fill="none" xmlns="http://www.w3.org/2000/svg">
<path d="M359.76 44.5L359.659 46.0947C359.118 54.6671 358.069 63.1224 356.888 71.5908C356.7 72.9535 356.512 74.316 356.324 75.6787V75.6797C354.862 86.2585 353.327 96.827 351.748 107.389C350.643 114.788 349.6 122.194 348.609 129.608L348.347 131.569L346.529 130.787C344.119 129.75 342.07 128.608 339.982 127.049L338.39 125.868L338.383 125.863C337.835 125.452 337.286 125.041 336.721 124.617V124.616C335.587 123.774 334.451 122.933 333.317 122.092L333.316 122.09C332.766 121.681 332.215 121.273 331.649 120.852V120.851C328.842 118.776 325.991 116.749 323.124 114.723C320.496 115.817 319.039 117.726 316.969 120.271L316.963 120.278L316.957 120.285C316.131 121.276 315.302 122.265 314.473 123.253C313.814 124.04 313.817 124.036 313.145 124.839L313.138 124.848C310.699 127.714 308.172 130.509 305.666 133.287L305.667 133.288L304.131 134.993C303.147 136.086 302.161 137.178 301.176 138.271C295.858 144.172 290.611 150.125 285.409 156.117C281.257 160.901 277.068 165.655 272.842 170.384L272.841 170.383C271.072 172.372 269.321 174.375 267.574 176.386H267.573C261.469 183.406 255.222 190.322 249.014 197.238C246.185 200.39 243.36 203.544 240.544 206.704L240.541 206.707C239.955 207.361 239.367 208.016 238.763 208.689C237.481 210.141 236.22 211.611 234.972 213.094L234.966 213.101C234.295 213.888 233.622 214.675 232.931 215.485L232.932 215.486C232.331 216.205 231.73 216.924 231.111 217.664L231.044 217.743L230.968 217.812C230.175 218.532 229.484 219.198 228.457 219.513C227.544 219.793 226.405 219.775 224.827 219.775H224.402L224.038 219.551C222.066 218.33 220.28 217.104 218.454 215.72V215.719C217.94 215.338 217.425 214.958 216.895 214.566L216.891 214.564C212.796 211.521 208.783 208.394 204.791 205.268L204.76 205.242C201.707 202.715 200.275 201.531 198.725 200.54C197.383 199.682 195.943 198.962 193.256 197.67L193.249 197.687L193.217 197.741C191.847 200.062 190.183 201.904 188.465 203.788L188.466 203.789C186.017 206.497 183.589 209.202 181.217 211.948L181.214 211.951C178.902 214.613 176.559 217.249 174.208 219.873L171.856 222.494C167.737 227.076 163.631 231.666 159.549 236.273L159.548 236.274C158.86 237.05 158.86 237.051 158.157 237.842L158.156 237.841C156.077 240.191 154.04 242.523 152.113 244.936L151.411 245.815L150.37 245.387C147.757 244.31 145.921 243.167 143.947 241.183C143.474 240.71 143.049 240.288 142.562 239.802L142.557 239.796L142.551 239.79C142.077 239.307 141.602 238.825 141.113 238.328V238.327C140.627 237.838 140.141 237.349 139.64 236.846L139.639 236.845C138.231 235.426 136.831 234.001 135.434 232.578V232.577C134.772 231.912 134.109 231.246 133.427 230.561L133.419 230.553L134.49 229.503L133.419 230.552C131.554 228.647 130.497 227.575 129.819 226.646C129.219 225.824 128.907 225.102 128.559 224.168C127.954 223.983 127.348 223.798 126.724 223.607L125.473 223.225L125.682 221.934C126.259 218.369 128.194 216.376 130.307 214.091C131.003 213.33 131.698 212.569 132.415 211.785L132.418 211.781C133.117 211.022 133.817 210.262 134.536 209.48C135.723 208.152 136.908 206.823 138.089 205.49L138.091 205.487C140.411 202.884 142.736 200.285 145.069 197.69C149.853 192.368 154.621 187.054 159.289 181.666L159.292 181.664C161.619 178.992 163.985 176.35 166.337 173.717C168.44 171.361 170.537 168.999 172.631 166.635L175.514 163.389C177.593 161.047 179.642 158.719 181.604 156.329L181.608 156.324C182.488 155.262 182.488 155.261 183.386 154.177C183.873 153.571 184.36 152.965 184.862 152.342L184.941 152.243L185.035 152.16C185.695 151.576 186.316 150.989 187.325 150.724C188.166 150.503 189.271 150.516 190.858 150.516H191.283L191.647 150.74C193.614 151.958 195.395 153.181 197.216 154.561L198.79 155.725L198.793 155.728C202.888 158.771 206.901 161.897 210.893 165.023L210.909 165.036L210.925 165.049C213.978 167.576 215.41 168.76 216.96 169.751C218.302 170.609 219.742 171.328 222.431 172.621L222.446 172.592L222.477 172.539C223.804 170.286 225.393 168.517 227.066 166.69C230.015 163.432 232.897 160.138 235.733 156.795L235.735 156.793C240.727 150.926 245.884 145.192 251.039 139.478L258.85 130.795C259.352 130.235 259.857 129.672 260.375 129.096C263.418 125.702 266.426 122.284 269.404 118.842L269.411 118.835C271.935 115.957 274.504 113.115 277.058 110.281L279.018 108.095C283.36 103.228 287.621 98.3039 291.833 93.335C291.449 92.6206 291.063 92.0536 290.624 91.5498C290.021 90.8585 289.267 90.2292 288.162 89.498L288.153 89.4912C287.572 89.1004 286.991 88.7093 286.393 88.3066V88.3057C285.791 87.9099 285.188 87.5142 284.568 87.1064L284.56 87.1025C280.026 84.0863 275.675 80.9781 271.445 77.5693L270.172 76.543L271.304 75.3633C273.472 73.1036 275.447 72.1191 278.331 71.1328C279.122 70.8589 279.912 70.585 280.727 70.3027L280.737 70.2988C281.601 70.007 282.465 69.7148 283.355 69.4141C284.257 69.1034 285.159 68.7937 286.088 68.4736V68.4727C289.055 67.4528 292.025 66.4425 294.992 65.4326C297.028 64.7345 299.064 64.0353 301.099 63.3359L313.483 59.0957C321.307 56.4234 329.124 53.7331 336.943 51.041L343.483 48.7959L345.505 48.1016C346.739 47.678 347.974 47.2552 349.208 46.833C352.451 45.7186 354.159 45.1311 355.283 44.832C356.527 44.5012 357.157 44.5 358.162 44.5H359.76Z" fill="#423ADB" stroke="black" stroke-width="3"/>
<mask id="path-2-outside-1_1_210" maskUnits="userSpaceOnUse" x="-0.837708" y="0" width="249" height="346" fill="black">
<rect fill="white" x="-0.837708" width="249" height="346"/>
<path d="M30.9709 3C31.8124 3.00291 32.6538 3.00583 33.5207 3.00883C34.4077 3.00797 35.2947 3.00712 36.2085 3.00624C39.2043 3.00458 42.2 3.01011 45.1957 3.01556C47.3338 3.01584 49.4718 3.01568 51.6099 3.01511C57.434 3.01483 63.2582 3.02072 69.0823 3.02769C75.1615 3.03392 81.2408 3.03452 87.32 3.03571C98.8408 3.03883 110.362 3.04704 121.882 3.05706C134.995 3.06822 148.107 3.07373 161.219 3.07876C188.2 3.08922 215.181 3.10682 242.162 3.12908C241.749 3.88615 241.336 4.64321 240.911 5.42322C240.099 6.91146 240.099 6.91146 239.271 8.42977C238.734 9.41371 238.197 10.3977 237.644 11.4114C236.113 14.2197 234.584 17.0294 233.057 19.84C232.029 21.728 231.002 23.6161 229.975 25.5041C229.195 26.9407 229.195 26.9407 228.399 28.4064C227.894 29.3333 227.389 30.2601 226.869 31.215C226.42 32.0405 225.972 32.866 225.509 33.7165C225.065 34.5126 224.62 35.3088 224.162 36.1291C223.749 36.9902 223.335 37.8514 222.909 38.7387C221.162 41.1291 221.162 41.1291 218.751 41.7683C217.323 41.7783 217.323 41.7783 215.865 41.7885C214.784 41.8081 213.703 41.8278 212.589 41.848C211.424 41.8441 210.258 41.8402 209.057 41.8361C207.862 41.8512 206.668 41.8664 205.438 41.8819C201.616 41.925 197.796 41.9337 193.975 41.9416C191.387 41.9647 188.799 41.9901 186.211 42.0178C179.862 42.0808 173.512 42.1156 167.162 42.1291C167.705 42.9863 168.248 43.8435 168.807 44.7267C169.53 45.8815 170.252 47.0365 170.975 48.1916C171.331 48.753 171.688 49.3144 172.055 49.8928C176.51 57.0452 180.162 64.5966 180.162 73.1291C200.292 73.1291 220.422 73.1291 241.162 73.1291C239.221 77.9825 236.977 82.4574 234.537 87.0666C234.136 87.8329 233.735 88.5993 233.322 89.3888C229.442 96.7481 225.298 103.892 221.162 111.129C207.632 111.129 194.102 111.129 180.162 111.129C179.832 114.429 179.502 117.729 179.162 121.129C174.903 135.601 166.668 147.429 156.162 158.129C155.426 158.89 154.69 159.65 153.932 160.434C135.596 178.186 105.649 188.794 80.2795 189.172C79.5808 189.158 78.8821 189.144 78.1623 189.129C78.5284 189.544 78.8945 189.959 79.2717 190.387C82.1637 193.678 85.0416 196.98 87.8771 200.32C93.932 207.447 100.125 214.404 106.494 221.25C110.752 225.845 114.837 230.574 118.901 235.34C124.484 241.883 130.122 248.347 135.936 254.688C137.854 256.791 139.736 258.916 141.6 261.067C144.052 263.894 146.566 266.657 149.111 269.402C153.995 274.673 158.609 280.078 163.115 285.68C164.882 287.793 166.684 289.719 168.662 291.629C171.447 294.319 173.867 297.169 176.287 300.192C180.978 306.023 186.04 311.454 191.158 316.91C193.978 319.918 196.71 322.99 199.397 326.117C202.589 329.755 205.917 333.273 209.221 336.809C211.162 339.129 211.162 339.129 211.162 341.129C203.06 341.479 194.962 341.744 186.854 341.906C183.087 341.984 179.326 342.089 175.562 342.261C149.237 343.43 149.237 343.43 142.111 337.866C139.001 334.834 136.511 331.542 134.238 327.848C132.893 325.698 131.285 323.898 129.537 322.067C128.408 320.758 127.284 319.445 126.162 318.129C124.226 315.857 122.289 313.586 120.35 311.317C119.832 310.71 119.315 310.104 118.782 309.479C115.577 305.738 112.31 302.068 108.975 298.442C105.804 294.989 102.782 291.474 99.8498 287.817C95.2181 282.074 90.2141 276.728 85.1701 271.352C82.3168 268.308 79.5504 265.199 76.8264 262.039C74.8469 259.767 72.8165 257.544 70.7873 255.317C67.5858 251.777 64.5308 248.158 61.5373 244.442C59.0326 241.343 56.5284 238.396 53.6623 235.629C50.8974 232.959 48.4986 230.133 46.0998 227.129C42.3184 222.423 38.3118 218.012 34.1623 213.629C29.2322 208.421 24.5632 203.136 20.1271 197.496C18.2039 195.024 18.2039 195.024 15.57 193.018C12.3122 189.109 12.5118 186.472 12.674 181.547C12.6846 180.326 12.6846 180.326 12.6954 179.08C12.7233 176.491 12.7861 173.905 12.8498 171.317C12.8749 169.557 12.8977 167.797 12.9182 166.037C12.9731 161.734 13.0594 157.432 13.1623 153.129C14.1104 153.124 14.1104 153.124 15.0778 153.118C21.7638 153.076 28.4493 153.006 35.1349 152.922C37.6173 152.894 40.0997 152.872 42.5822 152.858C67.9074 152.705 94.6148 151.205 114.279 133.172C120.421 126.508 123.294 119.734 126.162 111.129C85.9023 111.129 45.6423 111.129 4.16229 111.129C5.60867 106.79 6.81665 103.675 9.02557 99.8283C9.58309 98.8505 10.1406 97.8728 10.715 96.8654C11.2957 95.8593 11.8765 94.8532 12.4748 93.8166C13.617 91.8206 14.7589 89.8246 15.9006 87.8283C16.4063 86.95 16.912 86.0718 17.433 85.1669C19.7072 81.1718 21.9298 77.1476 24.1623 73.1291C57.1623 73.1291 90.1623 73.1291 124.162 73.1291C118.61 62.0247 112.337 54.6382 101.162 49.1291C100.406 48.7514 99.6489 48.3737 98.8693 47.9846C86.091 42.2696 72.0493 41.6752 58.2873 41.6174C56.7407 41.6005 55.1942 41.5823 53.6476 41.563C49.6366 41.5161 45.6256 41.4859 41.6143 41.4595C37.4974 41.4294 33.3806 41.383 29.2639 41.3381C21.2301 41.2528 13.1963 41.1851 5.16229 41.1291C5.8514 37.366 6.81946 34.5386 8.67401 31.1799C9.18512 30.2485 9.69624 29.3172 10.2228 28.3576C10.7597 27.3953 11.2966 26.433 11.8498 25.4416C12.3674 24.4986 12.8849 23.5557 13.4182 22.5842C24.2167 3.01774 24.2167 3.01774 30.9709 3Z"/>
</mask>
<path d="M30.9709 3C31.8124 3.00291 32.6538 3.00583 33.5207 3.00883C34.4077 3.00797 35.2947 3.00712 36.2085 3.00624C39.2043 3.00458 42.2 3.01011 45.1957 3.01556C47.3338 3.01584 49.4718 3.01568 51.6099 3.01511C57.434 3.01483 63.2582 3.02072 69.0823 3.02769C75.1615 3.03392 81.2408 3.03452 87.32 3.03571C98.8408 3.03883 110.362 3.04704 121.882 3.05706C134.995 3.06822 148.107 3.07373 161.219 3.07876C188.2 3.08922 215.181 3.10682 242.162 3.12908C241.749 3.88615 241.336 4.64321 240.911 5.42322C240.099 6.91146 240.099 6.91146 239.271 8.42977C238.734 9.41371 238.197 10.3977 237.644 11.4114C236.113 14.2197 234.584 17.0294 233.057 19.84C232.029 21.728 231.002 23.6161 229.975 25.5041C229.195 26.9407 229.195 26.9407 228.399 28.4064C227.894 29.3333 227.389 30.2601 226.869 31.215C226.42 32.0405 225.972 32.866 225.509 33.7165C225.065 34.5126 224.62 35.3088 224.162 36.1291C223.749 36.9902 223.335 37.8514 222.909 38.7387C221.162 41.1291 221.162 41.1291 218.751 41.7683C217.323 41.7783 217.323 41.7783 215.865 41.7885C214.784 41.8081 213.703 41.8278 212.589 41.848C211.424 41.8441 210.258 41.8402 209.057 41.8361C207.862 41.8512 206.668 41.8664 205.438 41.8819C201.616 41.925 197.796 41.9337 193.975 41.9416C191.387 41.9647 188.799 41.9901 186.211 42.0178C179.862 42.0808 173.512 42.1156 167.162 42.1291C167.705 42.9863 168.248 43.8435 168.807 44.7267C169.53 45.8815 170.252 47.0365 170.975 48.1916C171.331 48.753 171.688 49.3144 172.055 49.8928C176.51 57.0452 180.162 64.5966 180.162 73.1291C200.292 73.1291 220.422 73.1291 241.162 73.1291C239.221 77.9825 236.977 82.4574 234.537 87.0666C234.136 87.8329 233.735 88.5993 233.322 89.3888C229.442 96.7481 225.298 103.892 221.162 111.129C207.632 111.129 194.102 111.129 180.162 111.129C179.832 114.429 179.502 117.729 179.162 121.129C174.903 135.601 166.668 147.429 156.162 158.129C155.426 158.89 154.69 159.65 153.932 160.434C135.596 178.186 105.649 188.794 80.2795 189.172C79.5808 189.158 78.8821 189.144 78.1623 189.129C78.5284 189.544 78.8945 189.959 79.2717 190.387C82.1637 193.678 85.0416 196.98 87.8771 200.32C93.932 207.447 100.125 214.404 106.494 221.25C110.752 225.845 114.837 230.574 118.901 235.34C124.484 241.883 130.122 248.347 135.936 254.688C137.854 256.791 139.736 258.916 141.6 261.067C144.052 263.894 146.566 266.657 149.111 269.402C153.995 274.673 158.609 280.078 163.115 285.68C164.882 287.793 166.684 289.719 168.662 291.629C171.447 294.319 173.867 297.169 176.287 300.192C180.978 306.023 186.04 311.454 191.158 316.91C193.978 319.918 196.71 322.99 199.397 326.117C202.589 329.755 205.917 333.273 209.221 336.809C211.162 339.129 211.162 339.129 211.162 341.129C203.06 341.479 194.962 341.744 186.854 341.906C183.087 341.984 179.326 342.089 175.562 342.261C149.237 343.43 149.237 343.43 142.111 337.866C139.001 334.834 136.511 331.542 134.238 327.848C132.893 325.698 131.285 323.898 129.537 322.067C128.408 320.758 127.284 319.445 126.162 318.129C124.226 315.857 122.289 313.586 120.35 311.317C119.832 310.71 119.315 310.104 118.782 309.479C115.577 305.738 112.31 302.068 108.975 298.442C105.804 294.989 102.782 291.474 99.8498 287.817C95.2181 282.074 90.2141 276.728 85.1701 271.352C82.3168 268.308 79.5504 265.199 76.8264 262.039C74.8469 259.767 72.8165 257.544 70.7873 255.317C67.5858 251.777 64.5308 248.158 61.5373 244.442C59.0326 241.343 56.5284 238.396 53.6623 235.629C50.8974 232.959 48.4986 230.133 46.0998 227.129C42.3184 222.423 38.3118 218.012 34.1623 213.629C29.2322 208.421 24.5632 203.136 20.1271 197.496C18.2039 195.024 18.2039 195.024 15.57 193.018C12.3122 189.109 12.5118 186.472 12.674 181.547C12.6846 180.326 12.6846 180.326 12.6954 179.08C12.7233 176.491 12.7861 173.905 12.8498 171.317C12.8749 169.557 12.8977 167.797 12.9182 166.037C12.9731 161.734 13.0594 157.432 13.1623 153.129C14.1104 153.124 14.1104 153.124 15.0778 153.118C21.7638 153.076 28.4493 153.006 35.1349 152.922C37.6173 152.894 40.0997 152.872 42.5822 152.858C67.9074 152.705 94.6148 151.205 114.279 133.172C120.421 126.508 123.294 119.734 126.162 111.129C85.9023 111.129 45.6423 111.129 4.16229 111.129C5.60867 106.79 6.81665 103.675 9.02557 99.8283C9.58309 98.8505 10.1406 97.8728 10.715 96.8654C11.2957 95.8593 11.8765 94.8532 12.4748 93.8166C13.617 91.8206 14.7589 89.8246 15.9006 87.8283C16.4063 86.95 16.912 86.0718 17.433 85.1669C19.7072 81.1718 21.9298 77.1476 24.1623 73.1291C57.1623 73.1291 90.1623 73.1291 124.162 73.1291C118.61 62.0247 112.337 54.6382 101.162 49.1291C100.406 48.7514 99.6489 48.3737 98.8693 47.9846C86.091 42.2696 72.0493 41.6752 58.2873 41.6174C56.7407 41.6005 55.1942 41.5823 53.6476 41.563C49.6366 41.5161 45.6256 41.4859 41.6143 41.4595C37.4974 41.4294 33.3806 41.383 29.2639 41.3381C21.2301 41.2528 13.1963 41.1851 5.16229 41.1291C5.8514 37.366 6.81946 34.5386 8.67401 31.1799C9.18512 30.2485 9.69624 29.3172 10.2228 28.3576C10.7597 27.3953 11.2966 26.433 11.8498 25.4416C12.3674 24.4986 12.8849 23.5557 13.4182 22.5842C24.2167 3.01774 24.2167 3.01774 30.9709 3Z" fill="#161698"/>
<path d="M30.9709 3C31.8124 3.00291 32.6538 3.00583 33.5207 3.00883C34.4077 3.00797 35.2947 3.00712 36.2085 3.00624C39.2043 3.00458 42.2 3.01011 45.1957 3.01556C47.3338 3.01584 49.4718 3.01568 51.6099 3.01511C57.434 3.01483 63.2582 3.02072 69.0823 3.02769C75.1615 3.03392 81.2408 3.03452 87.32 3.03571C98.8408 3.03883 110.362 3.04704 121.882 3.05706C134.995 3.06822 148.107 3.07373 161.219 3.07876C188.2 3.08922 215.181 3.10682 242.162 3.12908C241.749 3.88615 241.336 4.64321 240.911 5.42322C240.099 6.91146 240.099 6.91146 239.271 8.42977C238.734 9.41371 238.197 10.3977 237.644 11.4114C236.113 14.2197 234.584 17.0294 233.057 19.84C232.029 21.728 231.002 23.6161 229.975 25.5041C229.195 26.9407 229.195 26.9407 228.399 28.4064C227.894 29.3333 227.389 30.2601 226.869 31.215C226.42 32.0405 225.972 32.866 225.509 33.7165C225.065 34.5126 224.62 35.3088 224.162 36.1291C223.749 36.9902 223.335 37.8514 222.909 38.7387C221.162 41.1291 221.162 41.1291 218.751 41.7683C217.323 41.7783 217.323 41.7783 215.865 41.7885C214.784 41.8081 213.703 41.8278 212.589 41.848C211.424 41.8441 210.258 41.8402 209.057 41.8361C207.862 41.8512 206.668 41.8664 205.438 41.8819C201.616 41.925 197.796 41.9337 193.975 41.9416C191.387 41.9647 188.799 41.9901 186.211 42.0178C179.862 42.0808 173.512 42.1156 167.162 42.1291C167.705 42.9863 168.248 43.8435 168.807 44.7267C169.53 45.8815 170.252 47.0365 170.975 48.1916C171.331 48.753 171.688 49.3144 172.055 49.8928C176.51 57.0452 180.162 64.5966 180.162 73.1291C200.292 73.1291 220.422 73.1291 241.162 73.1291C239.221 77.9825 236.977 82.4574 234.537 87.0666C234.136 87.8329 233.735 88.5993 233.322 89.3888C229.442 96.7481 225.298 103.892 221.162 111.129C207.632 111.129 194.102 111.129 180.162 111.129C179.832 114.429 179.502 117.729 179.162 121.129C174.903 135.601 166.668 147.429 156.162 158.129C155.426 158.89 154.69 159.65 153.932 160.434C135.596 178.186 105.649 188.794 80.2795 189.172C79.5808 189.158 78.8821 189.144 78.1623 189.129C78.5284 189.544 78.8945 189.959 79.2717 190.387C82.1637 193.678 85.0416 196.98 87.8771 200.32C93.932 207.447 100.125 214.404 106.494 221.25C110.752 225.845 114.837 230.574 118.901 235.34C124.484 241.883 130.122 248.347 135.936 254.688C137.854 256.791 139.736 258.916 141.6 261.067C144.052 263.894 146.566 266.657 149.111 269.402C153.995 274.673 158.609 280.078 163.115 285.68C164.882 287.793 166.684 289.719 168.662 291.629C171.447 294.319 173.867 297.169 176.287 300.192C180.978 306.023 186.04 311.454 191.158 316.91C193.978 319.918 196.71 322.99 199.397 326.117C202.589 329.755 205.917 333.273 209.221 336.809C211.162 339.129 211.162 339.129 211.162 341.129C203.06 341.479 194.962 341.744 186.854 341.906C183.087 341.984 179.326 342.089 175.562 342.261C149.237 343.43 149.237 343.43 142.111 337.866C139.001 334.834 136.511 331.542 134.238 327.848C132.893 325.698 131.285 323.898 129.537 322.067C128.408 320.758 127.284 319.445 126.162 318.129C124.226 315.857 122.289 313.586 120.35 311.317C119.832 310.71 119.315 310.104 118.782 309.479C115.577 305.738 112.31 302.068 108.975 298.442C105.804 294.989 102.782 291.474 99.8498 287.817C95.2181 282.074 90.2141 276.728 85.1701 271.352C82.3168 268.308 79.5504 265.199 76.8264 262.039C74.8469 259.767 72.8165 257.544 70.7873 255.317C67.5858 251.777 64.5308 248.158 61.5373 244.442C59.0326 241.343 56.5284 238.396 53.6623 235.629C50.8974 232.959 48.4986 230.133 46.0998 227.129C42.3184 222.423 38.3118 218.012 34.1623 213.629C29.2322 208.421 24.5632 203.136 20.1271 197.496C18.2039 195.024 18.2039 195.024 15.57 193.018C12.3122 189.109 12.5118 186.472 12.674 181.547C12.6846 180.326 12.6846 180.326 12.6954 179.08C12.7233 176.491 12.7861 173.905 12.8498 171.317C12.8749 169.557 12.8977 167.797 12.9182 166.037C12.9731 161.734 13.0594 157.432 13.1623 153.129C14.1104 153.124 14.1104 153.124 15.0778 153.118C21.7638 153.076 28.4493 153.006 35.1349 152.922C37.6173 152.894 40.0997 152.872 42.5822 152.858C67.9074 152.705 94.6148 151.205 114.279 133.172C120.421 126.508 123.294 119.734 126.162 111.129C85.9023 111.129 45.6423 111.129 4.16229 111.129C5.60867 106.79 6.81665 103.675 9.02557 99.8283C9.58309 98.8505 10.1406 97.8728 10.715 96.8654C11.2957 95.8593 11.8765 94.8532 12.4748 93.8166C13.617 91.8206 14.7589 89.8246 15.9006 87.8283C16.4063 86.95 16.912 86.0718 17.433 85.1669C19.7072 81.1718 21.9298 77.1476 24.1623 73.1291C57.1623 73.1291 90.1623 73.1291 124.162 73.1291C118.61 62.0247 112.337 54.6382 101.162 49.1291C100.406 48.7514 99.6489 48.3737 98.8693 47.9846C86.091 42.2696 72.0493 41.6752 58.2873 41.6174C56.7407 41.6005 55.1942 41.5823 53.6476 41.563C49.6366 41.5161 45.6256 41.4859 41.6143 41.4595C37.4974 41.4294 33.3806 41.383 29.2639 41.3381C21.2301 41.2528 13.1963 41.1851 5.16229 41.1291C5.8514 37.366 6.81946 34.5386 8.67401 31.1799C9.18512 30.2485 9.69624 29.3172 10.2228 28.3576C10.7597 27.3953 11.2966 26.433 11.8498 25.4416C12.3674 24.4986 12.8849 23.5557 13.4182 22.5842C24.2167 3.01774 24.2167 3.01774 30.9709 3Z" stroke="black" stroke-width="6" mask="url(#path-2-outside-1_1_210)"/>
</svg>
