<svg width="490" height="490" viewBox="0 0 490 490" fill="none" xmlns="http://www.w3.org/2000/svg">
<rect width="490" height="490" rx="10" fill="white"/>
<path d="M422 118C421.462 126.516 420.42 134.927 419.24 143.383C419.052 144.747 418.864 146.111 418.677 147.474C417.215 158.046 415.68 168.609 414.102 179.167C412.995 186.575 411.952 193.988 410.96 201.409C408.642 200.412 406.697 199.326 404.713 197.844C404.187 197.454 403.662 197.064 403.121 196.663C402.572 196.252 402.024 195.841 401.458 195.417C400.322 194.573 399.185 193.73 398.048 192.886C397.498 192.478 396.948 192.069 396.381 191.647C393.348 189.405 390.266 187.22 387.18 185.039C383.618 186.237 381.834 188.632 379.643 191.324C378.817 192.314 377.99 193.303 377.161 194.29C376.504 195.075 376.504 195.075 375.833 195.876C373.411 198.723 370.9 201.502 368.39 204.284C367.883 204.847 367.376 205.41 366.854 205.99C365.87 207.082 364.885 208.175 363.9 209.267C358.575 215.177 353.321 221.136 348.114 227.134C343.966 231.912 339.782 236.661 335.561 241.385C333.786 243.38 332.029 245.388 330.279 247.402C324.185 254.411 317.948 261.315 311.736 268.236C308.906 271.389 306.08 274.544 303.262 277.706C302.675 278.36 302.089 279.014 301.484 279.688C300.19 281.153 298.919 282.635 297.662 284.128C296.988 284.918 296.314 285.709 295.619 286.524C295.018 287.243 294.417 287.961 293.798 288.701C292.062 290.276 292.062 290.276 288.665 290.276C286.733 289.08 284.987 287.88 283.198 286.524C282.679 286.14 282.159 285.756 281.624 285.36C277.546 282.329 273.546 279.213 269.554 276.087C263.503 271.076 263.503 271.076 256.393 267.669C256.081 268.317 256.081 268.317 255.763 268.979C254.481 271.15 252.918 272.888 251.192 274.782C248.74 277.492 246.304 280.207 243.92 282.968C240.846 286.506 237.716 290.001 234.578 293.491C230.457 298.075 226.349 302.668 222.264 307.279C221.575 308.055 221.575 308.055 220.873 308.846C218.791 311.199 216.732 313.555 214.779 316C212.32 314.986 210.659 313.946 208.845 312.121C208.387 311.665 207.93 311.209 207.459 310.739C206.984 310.256 206.51 309.774 206.021 309.277C205.533 308.785 205.044 308.294 204.541 307.788C203.136 306.372 201.739 304.95 200.342 303.528C199.677 302.859 199.013 302.191 198.328 301.503C194.511 297.606 194.511 297.606 193.548 294.953C192.707 294.696 191.866 294.438 191 294.173C191.495 291.116 193.098 289.433 195.246 287.109C195.944 286.346 196.641 285.583 197.36 284.798C198.063 284.033 198.767 283.268 199.493 282.48C200.681 281.151 201.866 279.819 203.049 278.485C205.367 275.883 207.692 273.286 210.022 270.693C214.806 265.371 219.582 260.048 224.261 254.649C226.58 251.986 228.939 249.353 231.294 246.716C233.398 244.358 235.496 241.995 237.591 239.63C238.55 238.547 239.51 237.466 240.472 236.386C242.553 234.042 244.618 231.695 246.6 229.281C247.48 228.218 247.48 228.218 248.378 227.134C248.87 226.523 249.362 225.912 249.868 225.282C251.298 224.016 251.298 224.016 254.695 224.016C256.627 225.211 258.373 226.411 260.162 227.767C260.682 228.151 261.201 228.535 261.737 228.931C265.815 231.962 269.815 235.078 273.806 238.205C279.858 243.215 279.858 243.215 286.967 246.622C287.178 246.186 287.389 245.75 287.607 245.3C288.845 243.198 290.334 241.534 292.009 239.704C294.972 236.431 297.867 233.123 300.714 229.765C305.692 223.916 310.834 218.197 315.991 212.482C318.599 209.59 321.202 206.694 323.804 203.797C324.307 203.236 324.811 202.676 325.329 202.098C328.379 198.698 331.392 195.273 334.376 191.824C336.892 188.955 339.453 186.123 342.01 183.285C347.266 177.449 352.396 171.532 357.456 165.551C356.31 163.104 355.175 161.8 352.828 160.247C352.247 159.856 351.667 159.465 351.068 159.062C350.461 158.663 349.854 158.264 349.229 157.853C344.721 154.855 340.409 151.774 336.224 148.402C338.171 146.372 339.906 145.492 342.654 144.552C343.447 144.277 344.239 144.003 345.055 143.72C345.919 143.428 346.783 143.136 347.673 142.835C348.577 142.524 349.482 142.212 350.414 141.892C353.378 140.872 356.346 139.862 359.314 138.852C361.351 138.154 363.387 137.455 365.424 136.755C369.549 135.338 373.677 133.925 377.805 132.515C385.631 129.842 393.45 127.152 401.268 124.46C403.447 123.71 405.627 122.962 407.807 122.215C408.475 121.986 409.142 121.757 409.83 121.521C411.064 121.097 412.297 120.674 413.531 120.252C420.087 118 420.087 118 422 118Z" fill="#423ADB"/>
<path d="M94.8086 75C95.6501 75.0029 96.4915 75.0058 97.3584 75.0088C98.2454 75.008 99.1324 75.0071 100.046 75.0062C103.042 75.0046 106.038 75.0101 109.033 75.0156C111.171 75.0158 113.31 75.0157 115.448 75.0151C121.272 75.0148 127.096 75.0207 132.92 75.0277C138.999 75.0339 145.078 75.0345 151.158 75.0357C162.678 75.0388 174.199 75.047 185.72 75.0571C198.832 75.0682 211.945 75.0737 225.057 75.0788C252.038 75.0892 279.019 75.1068 306 75.1291C305.587 75.8861 305.174 76.6432 304.749 77.4232C303.937 78.9115 303.937 78.9115 303.108 80.4298C302.572 81.4137 302.035 82.3977 301.482 83.4114C299.951 86.2197 298.422 89.0294 296.895 91.84C295.867 93.728 294.84 95.6161 293.812 97.5041C293.032 98.9407 293.032 98.9407 292.236 100.406C291.732 101.333 291.227 102.26 290.707 103.215C290.258 104.041 289.809 104.866 289.347 105.716C288.902 106.513 288.458 107.309 288 108.129C287.586 108.99 287.173 109.851 286.747 110.739C285 113.129 285 113.129 282.589 113.768C281.16 113.778 281.16 113.778 279.702 113.789C278.622 113.808 277.541 113.828 276.427 113.848C275.261 113.844 274.096 113.84 272.895 113.836C271.7 113.851 270.506 113.866 269.275 113.882C265.454 113.925 261.634 113.934 257.812 113.942C255.225 113.965 252.637 113.99 250.049 114.018C243.699 114.081 237.35 114.116 231 114.129C231.543 114.986 232.085 115.844 232.645 116.727C233.367 117.882 234.09 119.036 234.812 120.192C235.169 120.753 235.525 121.314 235.893 121.893C240.348 129.045 244 136.597 244 145.129C264.13 145.129 284.26 145.129 305 145.129C303.059 149.983 300.815 154.457 298.375 159.067C297.974 159.833 297.573 160.599 297.16 161.389C293.279 168.748 289.135 175.892 285 183.129C271.47 183.129 257.94 183.129 244 183.129C243.67 186.429 243.34 189.729 243 193.129C238.741 207.601 230.506 219.429 220 230.129C219.264 230.89 218.528 231.65 217.77 232.434C199.434 250.186 169.487 260.794 144.117 261.172C143.419 261.158 142.72 261.144 142 261.129C142.366 261.544 142.732 261.959 143.109 262.387C146.001 265.678 148.879 268.98 151.715 272.32C157.77 279.447 163.963 286.404 170.332 293.25C174.59 297.845 178.675 302.574 182.738 307.34C188.321 313.883 193.959 320.348 199.773 326.688C201.691 328.791 203.574 330.916 205.438 333.067C207.89 335.894 210.404 338.657 212.948 341.402C217.832 346.673 222.446 352.078 226.953 357.68C228.719 359.793 230.521 361.719 232.5 363.629C235.285 366.319 237.705 369.169 240.125 372.192C244.816 378.023 249.878 383.454 254.996 388.91C257.816 391.918 260.548 394.99 263.234 398.117C266.427 401.755 269.754 405.273 273.059 408.809C275 411.129 275 411.129 275 413.129C266.898 413.479 258.799 413.744 250.692 413.906C246.925 413.984 243.164 414.089 239.4 414.261C213.075 415.43 213.075 415.43 205.949 409.866C202.839 406.834 200.349 403.542 198.076 399.848C196.73 397.698 195.123 395.898 193.375 394.067C192.246 392.758 191.121 391.445 190 390.129C188.064 387.857 186.126 385.586 184.188 383.317C183.67 382.71 183.153 382.104 182.619 381.479C179.415 377.738 176.148 374.068 172.812 370.442C169.642 366.989 166.62 363.474 163.688 359.817C159.056 354.074 154.052 348.728 149.008 343.352C146.155 340.308 143.388 337.199 140.664 334.039C138.685 331.767 136.654 329.544 134.625 327.317C131.423 323.777 128.369 320.158 125.375 316.442C122.87 313.343 120.366 310.396 117.5 307.629C114.735 304.959 112.336 302.133 109.938 299.129C106.156 294.423 102.149 290.012 98 285.629C93.0699 280.421 88.4009 275.136 83.9648 269.496C82.0416 267.024 82.0416 267.024 79.4077 265.018C76.15 261.109 76.3495 258.472 76.5117 253.547C76.5223 252.326 76.5223 252.326 76.5332 251.08C76.561 248.491 76.6238 245.905 76.6875 243.317C76.7126 241.557 76.7354 239.797 76.7559 238.037C76.8109 233.734 76.8971 229.432 77 225.129C77.9482 225.124 77.9482 225.124 78.9155 225.118C85.6015 225.076 92.287 225.006 98.9727 224.922C101.455 224.894 103.937 224.872 106.42 224.858C131.745 224.705 158.452 223.205 178.117 205.172C184.259 198.508 187.132 191.734 190 183.129C149.74 183.129 109.48 183.129 68 183.129C69.4464 178.79 70.6544 175.675 72.8633 171.828C73.4208 170.851 73.9783 169.873 74.5527 168.865C75.1335 167.859 75.7142 166.853 76.3125 165.817C77.4547 163.821 78.5966 161.825 79.7383 159.828C80.244 158.95 80.7497 158.072 81.2708 157.167C83.5449 153.172 85.7675 149.148 88 145.129C121 145.129 154 145.129 188 145.129C182.448 134.025 176.175 126.638 165 121.129C164.243 120.751 163.487 120.374 162.707 119.985C149.929 114.27 135.887 113.675 122.125 113.617C120.578 113.6 119.032 113.582 117.485 113.563C113.474 113.516 109.463 113.486 105.452 113.46C101.335 113.429 97.2184 113.383 93.1016 113.338C85.0678 113.253 77.034 113.185 69 113.129C69.6891 109.366 70.6572 106.539 72.5117 103.18C73.0228 102.249 73.5339 101.317 74.0605 100.358C74.5974 99.3953 75.1343 98.433 75.6875 97.4416C76.2051 96.4986 76.7226 95.5557 77.2559 94.5842C88.0544 75.0177 88.0544 75.0177 94.8086 75Z" fill="#161698"/>
</svg>
